<?xml version="1.0" encoding="UTF-8"?>
<svg id="Layer_1" data-name="Layer 1" xmlns="http://www.w3.org/2000/svg"
  xmlns:xlink="http://www.w3.org/1999/xlink" viewBox="0 0 800 800">
  <defs>
    <style>
      .cls-1 {
      fill: url(#linear-gradient-2);
      }

      .cls-2 {
      fill: #1341a8;
      }

      .cls-3 {
      fill: #2563ea;
      }

      .cls-4 {
      fill: url(#linear-gradient-3);
      }

      .cls-5 {
      fill: url(#linear-gradient);
      }
    </style>
    <linearGradient id="linear-gradient" x1="181.24" y1="499.16" x2="230.89" y2="449.89"
      gradientUnits="userSpaceOnUse">
      <stop offset="0" stop-color="#2563ea" />
      <stop offset="1" stop-color="#1341a8" />
    </linearGradient>
    <linearGradient id="linear-gradient-2" x1="99.94" y1="457.77" x2="158.98" y2="412.02"
      xlink:href="#linear-gradient" />
    <linearGradient id="linear-gradient-3" x1="121.49" y1="402.05" x2="176.22" y2="355.13"
      xlink:href="#linear-gradient" />
  </defs>
  <g>
    <path class="cls-3"
      d="m161.41,424.72l82.67-55.77v-50.64c0-9-7.33-16.32-16.37-16.32H95.07c-9,0-16.32,7.33-16.32,16.32v163.36c0,9,7.33,16.32,16.32,16.32h105.96l43.04-43.04v-69.59l-11.85,11.67-70.82,69.72-60.29-73.54,41.16,21.5,19.13,10Zm-.04-91.84c6.32,24.4,6.98,25.05,31.37,31.37-24.4,6.32-25.05,6.98-31.37,31.37-6.32-24.4-6.98-25.05-31.37-31.37,24.4-6.32,25.05-6.98,31.37-31.37Z" />
    <polygon class="cls-5" points="211.3 487.73 201.04 498 164.13 498 203.67 458.42 211.3 487.73" />
    <polygon class="cls-3"
      points="285.17 344.91 244.06 414.37 244.02 414.46 232.21 397.04 244.06 385.37 285.17 344.91" />
    <path class="cls-1"
      d="m161.39,466.76l-31.24,31.24h-35.1c-9,0-16.32-7.33-16.32-16.32v-66.08l22.38-22.38,60.29,73.54Z" />
    <path class="cls-2" d="m244.05,454.96h-32.43c-5.99,0-10.85,4.86-10.85,10.85v32.19l43.29-43.04Z" />
    <path class="cls-4"
      d="m161.37,395.63l-19.09,19.09-41.16-21.5,28.87-28.96c24.4,6.32,25.05,6.98,31.37,31.37Z" />
  </g>
  <g>
    <path class="cls-3"
      d="m327.67,366.26v30.02h-16.55v-79.07h39.51c9.43,0,16.7,2.03,21.83,6.09,5.13,4.06,7.69,9.89,7.69,17.48,0,5.54-1.57,10.32-4.72,14.34-3.14,4.02-7.39,6.67-12.74,7.94l21.38,33.22h-18.63l-18.35-30.02h-19.42Zm35.8-24.8c0-3.78-1.21-6.62-3.65-8.53-2.43-1.91-6.08-2.86-10.94-2.86h-21.21v23.34h21.66c4.64,0,8.15-1.05,10.55-3.14,2.39-2.09,3.59-5.03,3.59-8.81Z" />
    <path class="cls-3"
      d="m400.29,368.95c0,5.91,1.1,10.37,3.28,13.38,2.19,3.01,5.3,4.52,9.34,4.52,2.77,0,5.04-.61,6.82-1.82,1.78-1.21,3.02-3.02,3.73-5.42l14.87,1.29c-4.3,11-13.04,16.5-26.21,16.5-9.13,0-16.14-2.7-21.04-8.11-4.9-5.41-7.35-13.29-7.35-23.65s2.49-17.73,7.46-23.12c4.98-5.39,12.03-8.08,21.16-8.08s15.38,2.89,19.98,8.67c4.6,5.78,6.9,14.24,6.9,25.39v.45h-38.95Zm23.68-9.88c-.3-4.9-1.48-8.58-3.54-11.03-2.06-2.45-4.83-3.68-8.3-3.68-3.7,0-6.56,1.29-8.56,3.87-2,2.58-3.06,6.19-3.17,10.83h23.57Z" />
    <path class="cls-3"
      d="m498,378.55c0,5.87-2.4,10.49-7.21,13.83-4.81,3.35-11.46,5.02-19.95,5.02s-14.73-1.32-19.17-3.96c-4.43-2.64-7.38-6.74-8.84-12.32l13.86-2.08c.79,2.88,2.14,4.92,4.07,6.12,1.93,1.2,5.28,1.8,10.07,1.8,4.41,0,7.63-.56,9.65-1.68,2.02-1.12,3.03-2.88,3.03-5.28,0-1.94-.81-3.49-2.44-4.63-1.63-1.14-4.39-2.1-8.28-2.89-2.96-.6-5.6-1.18-7.94-1.74-2.34-.56-4.34-1.11-6-1.66-1.67-.54-3.02-1.06-4.07-1.54-3.1-1.53-5.47-3.5-7.1-5.89-1.63-2.39-2.44-5.35-2.44-8.87,0-5.8,2.23-10.32,6.71-13.55,4.47-3.24,10.8-4.85,19-4.85,7.22,0,13.03,1.4,17.43,4.21,4.4,2.81,7.13,6.87,8.22,12.18l-13.97,1.46c-.45-2.47-1.55-4.31-3.31-5.53-1.76-1.21-4.55-1.82-8.36-1.82s-6.55.48-8.42,1.43c-1.87.95-2.81,2.55-2.81,4.8,0,1.76.72,3.15,2.16,4.18,1.44,1.03,3.86,1.88,7.27,2.55,4.75.97,8.97,1.97,12.65,3,3.69,1.03,6.65,2.25,8.9,3.68,2.21,1.42,3.97,3.25,5.3,5.47,1.33,2.23,1.99,5.08,1.99,8.56Z" />
    <path class="cls-3"
      d="m544.78,384.22c-2.1,4.6-4.76,7.95-8,10.05-3.24,2.1-7.08,3.14-11.53,3.14-6.43,0-11.37-1.97-14.82-5.92-3.44-3.95-5.16-9.74-5.16-17.37v-38.55h15.77v34.06c0,5.31.9,9.31,2.69,11.98,1.8,2.68,4.49,4.01,8.08,4.01,3.81,0,6.89-1.64,9.23-4.91,2.34-3.27,3.51-7.47,3.51-12.6v-32.55h15.77v47.14c0,2.58.04,5,.11,7.27.07,2.26.19,4.37.34,6.31h-15.04c-.22-2.69-.39-5.05-.5-7.07s-.17-3.68-.17-4.99h-.28Z" />
    <path class="cls-3"
      d="m587.28,363.73v32.55h-15.77v-47.14c0-3.26-.05-5.92-.14-8-.09-2.08-.2-3.94-.31-5.58h15.04c.07.45.17,1.51.28,3.17.11,1.67.22,3.37.31,5.11.09,1.74.14,3,.14,3.79h.22c1.95-4.64,4.37-8.01,7.27-10.1,2.9-2.09,6.37-3.14,10.41-3.14,4.64,0,8.37,1.1,11.2,3.31,2.82,2.21,4.72,5.52,5.69,9.93h.34c2.06-4.71,4.52-8.1,7.41-10.16,2.88-2.06,6.55-3.09,11-3.09,5.91,0,10.42,2.01,13.52,6.03,3.11,4.02,4.66,9.79,4.66,17.31v38.55h-15.66v-34.06c0-5.35-.77-9.35-2.3-12.01-1.53-2.66-3.84-3.98-6.9-3.98s-5.63,1.49-7.69,4.46c-2.06,2.97-3.09,7.08-3.09,12.32v33.28h-15.66v-34.06c0-5.35-.77-9.35-2.3-12.01-1.53-2.66-3.84-3.98-6.9-3.98s-5.77,1.63-7.77,4.88c-2,3.25-3,7.46-3,12.63Z" />
    <path class="cls-3"
      d="m682.33,368.95c0,5.91,1.1,10.37,3.28,13.38,2.19,3.01,5.3,4.52,9.34,4.52,2.77,0,5.04-.61,6.82-1.82,1.78-1.21,3.02-3.02,3.73-5.42l14.87,1.29c-4.3,11-13.04,16.5-26.21,16.5-9.13,0-16.14-2.7-21.04-8.11-4.9-5.41-7.35-13.29-7.35-23.65s2.49-17.73,7.46-23.12c4.98-5.39,12.03-8.08,21.16-8.08s15.38,2.89,19.98,8.67c4.6,5.78,6.9,14.24,6.9,25.39v.45h-38.95Zm23.68-9.88c-.3-4.9-1.48-8.58-3.54-11.03-2.06-2.45-4.83-3.68-8.3-3.68-3.7,0-6.56,1.29-8.56,3.87-2,2.58-3.06,6.19-3.17,10.83h23.57Z" />
    <path class="cls-2"
      d="m321.83,452.86v32.83h-10.72v-79.07h37.21c8.9,0,15.78,1.99,20.62,5.98,4.84,3.98,7.27,9.53,7.27,16.64,0,5.87-1.71,10.81-5.13,14.82-3.42,4-8.15,6.53-14.17,7.58l22.45,34.06h-12.35l-20.54-32.83h-24.64Zm43.6-23.51c0-4.6-1.56-8.11-4.68-10.52-3.12-2.41-7.62-3.62-13.5-3.62h-25.42v29.18h25.87c5.65,0,10.02-1.32,13.1-3.96,3.09-2.64,4.63-6.33,4.63-11.08Z" />
    <path class="cls-2"
      d="m424.11,475.3c-2.32,4.19-5,7.16-8.05,8.9-3.05,1.74-6.84,2.61-11.36,2.61-6.66,0-11.53-1.66-14.62-4.97-3.09-3.31-4.63-8.78-4.63-16.41v-40.46h10.16v38.5c0,6.06.94,10.17,2.83,12.32,1.89,2.15,5.12,3.23,9.68,3.23,4.86,0,8.7-1.66,11.5-4.99,2.81-3.33,4.21-7.95,4.21-13.86v-35.19h10.1v47.76c0,3.52.03,6.36.08,8.53.06,2.17.14,3.65.25,4.43h-9.54c-.04-.19-.1-1.07-.2-2.64-.09-1.57-.18-4.15-.25-7.74h-.17Z" />
    <path class="cls-2"
      d="m455.11,450.5v35.19h-10.1v-47.76c0-3.55-.03-6.41-.08-8.56-.06-2.15-.14-3.62-.25-4.41h9.54c.08.71.14,1.61.2,2.69.06,1.09.1,2.28.14,3.59.04,1.31.07,2.68.11,4.1h.17c2.32-4.19,5-7.16,8.05-8.89,3.05-1.74,6.84-2.61,11.36-2.61,6.66,0,11.53,1.7,14.62,5.11,3.09,3.4,4.63,8.83,4.63,16.27v40.46h-10.16v-38.5c0-5.8-.94-9.84-2.81-12.12-1.87-2.28-5.11-3.42-9.71-3.42-4.86,0-8.7,1.67-11.5,4.99-2.81,3.33-4.21,7.95-4.21,13.86Z" />
    <path class="cls-2"
      d="m514.29,450.5v35.19h-10.1v-47.76c0-3.55-.03-6.41-.08-8.56-.06-2.15-.14-3.62-.25-4.41h9.54c.08.71.14,1.61.2,2.69.06,1.09.1,2.28.14,3.59.04,1.31.07,2.68.11,4.1h.17c2.32-4.19,5-7.16,8.05-8.89,3.05-1.74,6.84-2.61,11.36-2.61,6.66,0,11.53,1.7,14.62,5.11,3.09,3.4,4.63,8.83,4.63,16.27v40.46h-10.16v-38.5c0-5.8-.94-9.84-2.81-12.12-1.87-2.28-5.11-3.42-9.71-3.42-4.86,0-8.7,1.67-11.5,4.99-2.81,3.33-4.21,7.95-4.21,13.86Z" />
    <path class="cls-2"
      d="m571.29,457.46c0,6.96,1.44,12.33,4.32,16.11,2.88,3.78,7.09,5.67,12.63,5.67,4.38,0,7.88-.88,10.52-2.64,2.64-1.76,4.42-3.98,5.36-6.68l8.87,2.53c-3.63,9.58-11.88,14.37-24.75,14.37-8.98,0-15.82-2.67-20.51-8.03-4.69-5.35-7.04-13.3-7.04-23.85s2.35-17.71,7.04-23.06c4.69-5.35,11.4-8.03,20.12-8.03s15.64,2.69,20.09,8.08c4.45,5.39,6.68,13.45,6.68,24.19v1.35h-43.32Zm32.88-7.74c-.56-6.4-2.19-11.06-4.88-14-2.69-2.94-6.57-4.4-11.62-4.4s-8.78,1.64-11.64,4.91c-2.86,3.27-4.41,7.77-4.63,13.5h32.77Z" />
    <path class="cls-2"
      d="m632.8,454.04v31.65h-10.1v-46.58c0-2.13-.03-4.38-.08-6.73-.06-2.36-.14-4.83-.25-7.41h9.54c.08,1.72.14,3.27.2,4.66.06,1.38.1,2.59.14,3.62.04,1.03.06,1.89.08,2.58.02.69.03,1.21.03,1.54h.23c1.12-3.67,2.36-6.51,3.7-8.53,1.31-1.87,2.81-3.17,4.49-3.9,1.68-.73,3.76-1.09,6.23-1.09,1.38,0,2.75.19,4.1.56v9.26c-1.27-.37-3.07-.56-5.39-.56-4.19,0-7.39,1.81-9.6,5.42-2.21,3.61-3.31,8.78-3.31,15.52Z" />
  </g>
</svg>
