<svg xmlns="http://www.w3.org/2000/svg" viewBox="0 0 32 40" x="0px" y="0px"><title>Artboard 2</title><g data-name="Layer 2"><path d="M5,22.75H9a2.43481,2.43481,0,0,0,.27-.01,6.68643,6.68643,0,0,1,2.33984-4.86A4.609,4.609,0,0,0,10.2,15.51,4.74773,4.74773,0,0,1,3.79,15.5,4.7347,4.7347,0,0,0,2.25,19v1A2.74842,2.74842,0,0,0,5,22.75Z"/><circle cx="16" cy="14.5" r="4.25"/><path d="M25,16.75a4.73037,4.73037,0,0,1-3.2-1.24,4.609,4.609,0,0,0-1.40991,2.37A6.68643,6.68643,0,0,1,22.73,22.74a2.43706,2.43706,0,0,0,.27.01h4A2.74842,2.74842,0,0,0,29.75,20V19a4.73378,4.73378,0,0,0-1.54-3.5A4.69762,4.69762,0,0,1,25,16.75Z"/><path d="M10.25,25A2.74842,2.74842,0,0,0,13,27.75h6A2.74842,2.74842,0,0,0,21.75,25V23a5.71616,5.71616,0,0,0-2.28-4.57007,5.22066,5.22066,0,0,1-6.93994,0A5.71616,5.71616,0,0,0,10.25,23Z"/><circle cx="7" cy="12" r="3.75"/><circle cx="25" cy="12" r="3.75"/></g><text x="0" y="47" fill="#000000" font-size="5px" font-weight="bold" font-family="'Helvetica Neue', Helvetica, Arial-Unicode, Arial, Sans-serif">Created by Anggara Putra</text><text x="0" y="52" fill="#000000" font-size="5px" font-weight="bold" font-family="'Helvetica Neue', Helvetica, Arial-Unicode, Arial, Sans-serif">from the Noun Project</text></svg>