<svg xmlns="http://www.w3.org/2000/svg" xmlns:xlink="http://www.w3.org/1999/xlink" xml:space="preserve" version="1.1" style="shape-rendering:geometricPrecision;text-rendering:geometricPrecision;image-rendering:optimizeQuality;" viewBox="0 0 849.06 780.2249999999999" x="0px" y="0px" fill-rule="evenodd" clip-rule="evenodd"><defs><style type="text/css">
   
    .fil0 {fill:black}
   
  </style></defs><g><path class="fil0" d="M149.25 487.65l0 -201.89 237.15 97.62c12.2,4.96 25.16,4.88 37.34,-0.09l243.15 -100.06 0 204.42c-0.04,3.22 -0.68,6.5 -2.03,9.65 -0.12,0.31 -46.55,110.74 -254.45,126.76 -1.36,0.13 -2.77,0.15 -4.18,0.04 -189.05,-14.4 -244.83,-106.82 -253.63,-124.03 -2.13,-3.66 -3.35,-7.9 -3.35,-12.42zm-134.02 -329.25l380.44 -156.55c6.24,-2.56 12.92,-2.37 18.71,0l380.43 156.55c15.32,6.3 20.05,25.61 9.79,38.29l0 235.75 40.71 65.17c10.28,16.53 -1.91,37.74 -20.94,37.68l-88.95 0.06c-20.26,0 -31.57,-22.93 -20.14,-39.02l39.9 -63.87 0 -212.19 -340.8 140.24c-6.24,2.56 -12.92,2.37 -18.71,0l-380.44 -156.54c-20.51,-8.42 -20.08,-37.32 0,-45.57z"/></g><text x="0" y="639.18" fill="#000000" font-size="5px" font-weight="bold" font-family="'Helvetica Neue', Helvetica, Arial-Unicode, Arial, Sans-serif">Created by Rudi supriyanto</text><text x="0" y="644.18" fill="#000000" font-size="5px" font-weight="bold" font-family="'Helvetica Neue', Helvetica, Arial-Unicode, Arial, Sans-serif">from the Noun Project</text></svg>