<svg xmlns="http://www.w3.org/2000/svg" xmlns:xlink="http://www.w3.org/1999/xlink" version="1.1" x="0px" y="0px" viewBox="0 0 100 125" enable-background="new 0 0 100 100" xml:space="preserve"><path d="M89.5,43.5h-7.526C79.466,31.587,68.116,22.898,54,21.657V16.5h11.5l-3-5l3-5H47v15.156  C32.885,22.898,21.534,31.587,19.026,43.5H11.5v7h78V43.5z"/><polygon points="89.5,86.5 89.5,79.5 82.5,79.5 82.5,55.5 73.5,55.5 73.5,79.5 64.5,79.5 64.5,55.5 55.5,55.5 55.5,79.5 46.5,79.5   46.5,55.5 37.5,55.5 37.5,79.5 27.5,79.5 27.5,55.5 18.5,55.5 18.5,79.5 11.5,79.5 11.5,86.5 5.5,86.5 5.5,93.5 94.5,93.5   94.5,86.5 "/><text x="0" y="115" fill="#000000" font-size="5px" font-weight="bold" font-family="'Helvetica Neue', Helvetica, Arial-Unicode, Arial, Sans-serif">Created by Tomas Knopp</text><text x="0" y="120" fill="#000000" font-size="5px" font-weight="bold" font-family="'Helvetica Neue', Helvetica, Arial-Unicode, Arial, Sans-serif">from the Noun Project</text></svg>